{
  "asset": {
    "version": "2.0",
    "generator": "Sketchup glTF Exporter v1.2.6 by Centaur"
  },
  "scene": 0,
  "scenes": [
    {
      "nodes": [
        0
      ]
    }
  ],
  "samplers": [
    {
    }
  ],
  "nodes": [
    {
      "name": "root",
      "children": [
        1
      ]
    },
    {
      "children": [
        2,
        4,
        13
      ]
    },
    {
      "children": [
        3
      ],
      "mesh": 1
    },
    {
      "mesh": 0
    },
    {
      "children": [
        5,
        6,
        7,
        8,
        9,
        10,
        11,
        12
      ],
      "mesh": 10
    },
    {
      "mesh": 2
    },
    {
      "mesh": 3
    },
    {
      "mesh": 4
    },
    {
      "mesh": 5
    },
    {
      "mesh": 6
    },
    {
      "mesh": 7
    },
    {
      "mesh": 8
    },
    {
      "mesh": 9
    },
    {
      "mesh": 11
    }
  ],
  "materials": [
    {
      "pbrMetallicRoughness": {
        "baseColorFactor": [
          0.7083,
          0.7012,
          0.4762,
          1.0
        ],
        "metallicFactor": 0.1,
        "roughnessFactor": 0.9
      },
      "name": "Matière1"
    },
    {
      "pbrMetallicRoughness": {
        "baseColorFactor": [
          0.2176,
          0.2176,
          0.2176,
          1.0
        ],
        "metallicFactor": 0.1,
        "roughnessFactor": 0.9
      },
      "name": "default material",
      "doubleSided": true
    }
  ],
  "meshes": [
    {
      "primitives": [
        {
          "attributes": {
            "POSITION": 0,
            "NORMAL": 1
          },
          "indices": 2,
          "mode": 4,
          "material": 0
        }
      ]
    },
    {
      "primitives": [
        {
          "attributes": {
            "POSITION": 0,
            "NORMAL": 1
          },
          "indices": 3,
          "mode": 4,
          "material": 0
        },
        {
          "attributes": {
            "POSITION": 0,
            "NORMAL": 1
          },
          "indices": 4,
          "mode": 4,
          "material": 1
        }
      ]
    },
    {
      "primitives": [
        {
          "attributes": {
            "POSITION": 0,
            "NORMAL": 1
          },
          "indices": 5,
          "mode": 4,
          "material": 0
        }
      ]
    },
    {
      "primitives": [
        {
          "attributes": {
            "POSITION": 0,
            "NORMAL": 1
          },
          "indices": 6,
          "mode": 4,
          "material": 0
        }
      ]
    },
    {
      "primitives": [
        {
          "attributes": {
            "POSITION": 0,
            "NORMAL": 1
          },
          "indices": 7,
          "mode": 4,
          "material": 0
        }
      ]
    },
    {
      "primitives": [
        {
          "attributes": {
            "POSITION": 0,
            "NORMAL": 1
          },
          "indices": 8,
          "mode": 4,
          "material": 0
        }
      ]
    },
    {
      "primitives": [
        {
          "attributes": {
            "POSITION": 0,
            "NORMAL": 1
          },
          "indices": 9,
          "mode": 4,
          "material": 0
        }
      ]
    },
    {
      "primitives": [
        {
          "attributes": {
            "POSITION": 0,
            "NORMAL": 1
          },
          "indices": 10,
          "mode": 4,
          "material": 0
        }
      ]
    },
    {
      "primitives": [
        {
          "attributes": {
            "POSITION": 0,
            "NORMAL": 1
          },
          "indices": 11,
          "mode": 4,
          "material": 0
        }
      ]
    },
    {
      "primitives": [
        {
          "attributes": {
            "POSITION": 0,
            "NORMAL": 1
          },
          "indices": 12,
          "mode": 4,
          "material": 0
        }
      ]
    },
    {
      "primitives": [
        {
          "attributes": {
            "POSITION": 0,
            "NORMAL": 1
          },
          "indices": 13,
          "mode": 4,
          "material": 0
        },
        {
          "attributes": {
            "POSITION": 0,
            "NORMAL": 1
          },
          "indices": 14,
          "mode": 4,
          "material": 1
        }
      ]
    },
    {
      "primitives": [
        {
          "attributes": {
            "POSITION": 0,
            "NORMAL": 1
          },
          "indices": 15,
          "mode": 4,
          "material": 0
        }
      ]
    }
  ],
  "accessors": [
    {
      "bufferView": 0,
      "componentType": 5126,
      "count": 6832,
      "type": "VEC3",
      "min": [
        1.002294837232289,
        -0.03161571180345681,
        -1.7309459136076364
      ],
      "max": [
        1.0740735702951125,
        0.03862414297131151,
        -1.6588057641438314
      ]
    },
    {
      "bufferView": 1,
      "componentType": 5126,
      "count": 6832,
      "type": "VEC3",
      "min": [
        -1.0,
        -1.0,
        -1.0
      ],
      "max": [
        1.0,
        1.0,
        1.0
      ]
    },
    {
      "bufferView": 2,
      "componentType": 5123,
      "count": 456,
      "type": "SCALAR"
    },
    {
      "bufferView": 2,
      "componentType": 5123,
      "count": 11892,
      "type": "SCALAR",
      "byteOffset": 912
    },
    {
      "bufferView": 2,
      "componentType": 5123,
      "count": 636,
      "type": "SCALAR",
      "byteOffset": 24696
    },
    {
      "bufferView": 2,
      "componentType": 5123,
      "count": 678,
      "type": "SCALAR",
      "byteOffset": 25968
    },
    {
      "bufferView": 2,
      "componentType": 5123,
      "count": 570,
      "type": "SCALAR",
      "byteOffset": 27324
    },
    {
      "bufferView": 2,
      "componentType": 5123,
      "count": 648,
      "type": "SCALAR",
      "byteOffset": 28464
    },
    {
      "bufferView": 2,
      "componentType": 5123,
      "count": 669,
      "type": "SCALAR",
      "byteOffset": 29760
    },
    {
      "bufferView": 2,
      "componentType": 5123,
      "count": 558,
      "type": "SCALAR",
      "byteOffset": 31098
    },
    {
      "bufferView": 2,
      "componentType": 5123,
      "count": 645,
      "type": "SCALAR",
      "byteOffset": 32214
    },
    {
      "bufferView": 2,
      "componentType": 5123,
      "count": 798,
      "type": "SCALAR",
      "byteOffset": 33504
    },
    {
      "bufferView": 2,
      "componentType": 5123,
      "count": 1017,
      "type": "SCALAR",
      "byteOffset": 35100
    },
    {
      "bufferView": 2,
      "componentType": 5123,
      "count": 12306,
      "type": "SCALAR",
      "byteOffset": 37134
    },
    {
      "bufferView": 2,
      "componentType": 5123,
      "count": 291,
      "type": "SCALAR",
      "byteOffset": 61746
    },
    {
      "bufferView": 2,
      "componentType": 5123,
      "count": 456,
      "type": "SCALAR",
      "byteOffset": 62328
    }
  ],
  "bufferViews": [
    {
      "buffer": 0,
      "byteLength": 81984,
      "target": 34962,
      "byteStride": 12
    },
    {
      "buffer": 0,
      "byteOffset": 81984,
      "byteLength": 81984,
      "target": 34962,
      "byteStride": 12
    },
    {
      "buffer": 0,
      "byteOffset": 163968,
      "byteLength": 63240,
      "target": 34963
    }
  ],
  "buffers": [
    {
      "uri": "data:application/octet-stream;base64,",
      "byteLength": 227208
    }
  ]
}